<?xml version="1.0" encoding="UTF-8" standalone="no"?>
<svg width="435.681mm" height="25.4mm"
 xmlns="http://www.w3.org/2000/svg" xmlns:xlink="http://www.w3.org/1999/xlink"  version="1.2" baseProfile="tiny">
<title>Qt SVG Document</title>
<desc>Generated with Qt</desc>
<defs>
</defs>
<g fill="none" stroke="black" stroke-width="1" fill-rule="evenodd" stroke-linecap="square" stroke-linejoin="bevel" >

<g fill="none" stroke="#000000" stroke-opacity="1" stroke-width="1" stroke-linecap="square" stroke-linejoin="bevel" transform="matrix(1,0,0,1,0,0)"
font-family="Ubuntu" font-size="11" font-weight="400" font-style="normal" 
>
</g>

<g fill="none" stroke="#000000" stroke-opacity="1" stroke-width="1" stroke-linecap="square" stroke-linejoin="bevel" transform="matrix(1,0,0,1,0,0)"
font-family="Ubuntu" font-size="11" font-weight="400" font-style="normal" 
>
</g>

<g fill="none" stroke="#000000" stroke-opacity="1" stroke-width="1" stroke-linecap="square" stroke-linejoin="bevel" transform="matrix(1.99946,0,0,1.99946,-0.00279924,71.9805)"
font-family="Ubuntu" font-size="11" font-weight="400" font-style="normal" 
>
</g>

<g fill="#ffffff" fill-opacity="1" stroke="none" transform="matrix(1.99946,0,0,1.99946,-0.00279924,71.9805)"
font-family="Ubuntu" font-size="11" font-weight="400" font-style="normal" 
>
<rect x="0.0014" y="-36" width="617.667" height="36"/>
</g>

<g fill="none" stroke="#000000" stroke-opacity="1" stroke-width="1" stroke-linecap="square" stroke-linejoin="bevel" transform="matrix(1.99946,0,0,1.99946,-0.00279924,71.9805)"
font-family="Ubuntu" font-size="11" font-weight="400" font-style="normal" 
>
</g>

<g fill="none" stroke="#000000" stroke-opacity="1" stroke-width="1" stroke-linecap="square" stroke-linejoin="bevel" transform="matrix(1.99946,0,0,1.99946,-0.00279924,71.9805)"
font-family="Ubuntu" font-size="11" font-weight="400" font-style="normal" 
>
</g>

<g fill="none" stroke="#000000" stroke-opacity="1" stroke-width="1" stroke-linecap="square" stroke-linejoin="bevel" transform="matrix(1.99946,0,0,1.99946,-0.00279924,71.9805)"
font-family="Ubuntu" font-size="11" font-weight="400" font-style="normal" 
>
</g>

<g fill="none" stroke="#000000" stroke-opacity="1" stroke-width="1" stroke-linecap="square" stroke-linejoin="bevel" transform="matrix(1.99946,0,0,1.99946,-0.00279924,71.9805)"
font-family="Ubuntu" font-size="11" font-weight="400" font-style="normal" 
>
</g>

<g fill="none" stroke="#000000" stroke-opacity="1" stroke-width="1" stroke-linecap="square" stroke-linejoin="round" transform="matrix(1.99946,0,0,1.99946,-0.00279924,71.9805)"
font-family="Ubuntu" font-size="11" font-weight="400" font-style="normal" 
>
<rect x="495.171" y="-35.5" width="121.998" height="35"/>
</g>

<g fill="none" stroke="#000000" stroke-opacity="1" stroke-width="1" stroke-linecap="square" stroke-linejoin="bevel" transform="matrix(1.99946,0,0,1.99946,-0.00279924,71.9805)"
font-family="Ubuntu" font-size="11" font-weight="400" font-style="normal" 
>
</g>

<g fill="none" stroke="#000000" stroke-opacity="1" stroke-width="1" stroke-linecap="square" stroke-linejoin="bevel" transform="matrix(1.99946,0,0,1.99946,1028.95,21.994)"
font-family="Ubuntu" font-size="11" font-weight="400" font-style="normal" 
>
</g>

<g fill="none" stroke="#000000" stroke-opacity="1" stroke-width="1" stroke-linecap="square" stroke-linejoin="bevel" transform="matrix(1.99946,0,0,1.99946,1028.95,21.994)"
font-family="sans" font-size="11" font-weight="100" font-style="normal" 
>
</g>

<g fill="#000000" fill-opacity="1" stroke="#000000" stroke-opacity="1" stroke-width="1" stroke-linecap="square" stroke-linejoin="round" transform="matrix(1.99946,0,0,1.99946,1028.95,21.994)"
font-family="sans" font-size="11" font-weight="100" font-style="normal" 
>
<path vector-effect="none" fill-rule="nonzero" d="M2.96875,2.98438 L3.53125,2.98438 L0.734375,12.0156 L0.171875,12.0156 L2.96875,2.98438 M9.5,7.375 L9.5,11 L9,11 L9,7.40625 C9,6.625 8.875,6.07552 8.625,5.75781 C8.375,5.4401 8.00521,5.28125 7.51563,5.28125 C6.94271,5.28125 6.45833,5.45313 6.0625,5.79688 C5.64583,6.14063 5.4375,6.73958 5.4375,7.59375 L5.4375,11 L4.95313,11 L4.95313,4.98438 L5.4375,4.98438 L5.4375,6.10938 C5.61458,5.74479 5.84896,5.46875 6.14063,5.28125 C6.55729,4.98958 7.02083,4.84375 7.53125,4.84375 C8.13542,4.84375 8.61458,5.04688 8.96875,5.45313 C9.32292,5.84896 9.5,6.48958 9.5,7.375 M11.8594,8.60938 L11.8594,4.98438 L12.3438,4.98438 L12.3438,8.57813 C12.3438,9.35938 12.4688,9.90885 12.7188,10.2266 C12.9688,10.5443 13.3385,10.7031 13.8281,10.7031 C14.401,10.7031 14.8906,10.5313 15.2969,10.1875 C15.7031,9.84375 15.9063,9.24479 15.9063,8.39063 L15.9063,4.98438 L16.3906,4.98438 L16.3906,11 L15.9063,11 L15.9063,9.875 C15.7292,10.2396 15.4948,10.5156 15.2031,10.7031 C14.7865,10.9948 14.3229,11.1406 13.8125,11.1406 C13.2188,11.1406 12.7448,10.9375 12.3906,10.5313 C12.0365,10.1354 11.8594,9.49479 11.8594,8.60938 M23.2188,6.29688 C23.4063,5.80729 23.6979,5.44271 24.0938,5.20313 C24.4792,4.96354 24.9323,4.84375 25.4531,4.84375 C25.974,4.84375 26.3906,5.02604 26.7031,5.39063 C27.026,5.75521 27.1875,6.41667 27.1875,7.375 L27.1875,11 L26.7031,11 L26.7031,7.40625 C26.7031,6.57292 26.5885,6.01042 26.3594,5.71875 C26.1302,5.42708 25.8229,5.28125 25.4375,5.28125 C24.8854,5.28125 24.401,5.44792 23.9844,5.78125 C23.5156,6.15625 23.2813,6.76042 23.2813,7.59375 L23.2813,11 L22.7969,11 L22.7969,7.40625 C22.7969,6.60417 22.6849,6.04948 22.4609,5.74219 C22.237,5.4349 21.9271,5.28125 21.5313,5.28125 C20.9792,5.28125 20.4948,5.45313 20.0781,5.79688 C19.6094,6.16146 19.375,6.76042 19.375,7.59375 L19.375,11 L18.8906,11 L18.8906,4.98438 L19.375,4.98438 L19.375,6.10938 C19.5521,5.71354 19.8281,5.40104 20.2031,5.17188 C20.5677,4.95313 21.0208,4.84375 21.5625,4.84375 C21.9167,4.84375 22.2552,4.95833 22.5781,5.1875 C22.8281,5.375 23.0417,5.74479 23.2188,6.29688 M33.3125,10.0938 C33.7292,9.67708 33.9375,8.97917 33.9375,8 C33.9375,7.02083 33.7292,6.32292 33.3125,5.90625 C32.8958,5.48958 32.4583,5.28125 32,5.28125 C31.5521,5.28125 31.1198,5.48958 30.7031,5.90625 C30.2969,6.32292 30.0938,7.02083 30.0938,8 C30.0938,8.97917 30.2969,9.67708 30.7031,10.0938 C31.1198,10.5104 31.5521,10.7188 32,10.7188 C32.4583,10.7188 32.8958,10.5104 33.3125,10.0938 M30.0781,6.35938 C30.3073,5.83854 30.5521,5.47917 30.8125,5.28125 C31.2188,4.98958 31.6042,4.84375 31.9688,4.84375 C32.6771,4.84375 33.2682,5.13281 33.7422,5.71094 C34.2161,6.28906 34.4531,7.05208 34.4531,8 C34.4531,8.94792 34.2161,9.71094 33.7422,10.2891 C33.2682,10.8672 32.6771,11.1563 31.9688,11.1563 C31.6042,11.1563 31.2188,11.0052 30.8125,10.7031 C30.5521,10.5156 30.3073,10.1615 30.0781,9.64063 L30.0781,11 L29.5938,11 L29.5938,2.64063 L30.0781,2.64063 L30.0781,6.35938 M41.25,7.75 L41.25,8.0625 L36.6875,8.0625 C36.6875,9.02083 36.875,9.69792 37.25,10.0938 C37.6667,10.5208 38.2813,10.7344 39.0938,10.7344 C39.3125,10.7344 39.599,10.6875 39.9531,10.5938 C40.3073,10.5 40.6615,10.3594 41.0156,10.1719 L41.0156,10.6875 C40.6615,10.8438 40.2995,10.9609 39.9297,11.0391 C39.5599,11.1172 39.2656,11.1563 39.0469,11.1563 C38.1198,11.1563 37.4219,10.9063 36.9531,10.4063 C36.4427,9.875 36.1875,9.09375 36.1875,8.0625 C36.1875,6.98958 36.4167,6.1875 36.875,5.65625 C37.3542,5.11458 38.0208,4.84375 38.875,4.84375 C39.6563,4.84375 40.25,5.10417 40.6563,5.625 C41.0521,6.16667 41.25,6.875 41.25,7.75 M40.75,7.64063 C40.75,6.79688 40.5573,6.18229 40.1719,5.79688 C39.8594,5.45313 39.4271,5.28125 38.875,5.28125 C38.2813,5.28125 37.7813,5.45833 37.375,5.8125 C37,6.14583 36.776,6.75521 36.7031,7.64063 L40.75,7.64063 M46.5938,5.40625 C46.5104,5.36458 46.401,5.33333 46.2656,5.3125 C46.1406,5.29167 45.9896,5.28125 45.8125,5.28125 C45.1979,5.28125 44.6927,5.50521 44.2969,5.95313 C43.974,6.31771 43.8125,6.94271 43.8125,7.82813 L43.8125,11 L43.3281,11 L43.3281,4.98438 L43.8125,4.98438 L43.8125,6.10938 C43.9792,5.78646 44.2083,5.51563 44.5,5.29688 C44.8958,4.99479 45.3646,4.84375 45.9063,4.84375 C46.0521,4.84375 46.1771,4.84896 46.2813,4.85938 C46.3854,4.85938 46.4896,4.86979 46.5938,4.89063 L46.5938,5.40625 M52.2031,13.1719 L52.2031,13.5938 L46.4844,13.5938 L46.4844,13.1719 L52.2031,13.1719 M57.4531,5.28125 L57.4531,5.79688 C57.1615,5.61979 56.9167,5.5 56.7188,5.4375 C56.3854,5.33333 56.0677,5.28125 55.7656,5.28125 C54.901,5.28125 54.2813,5.5026 53.9063,5.94531 C53.5313,6.38802 53.3438,7.07292 53.3438,8 C53.3438,8.9375 53.5313,9.6276 53.9063,10.0703 C54.2813,10.513 54.901,10.7344 55.7656,10.7344 C56.0573,10.7344 56.3385,10.6927 56.6094,10.6094 C56.901,10.5365 57.1823,10.4219 57.4531,10.2656 L57.4531,10.7656 C57.1823,10.901 56.901,11 56.6094,11.0625 C56.3073,11.125 56.0104,11.1563 55.7188,11.1563 C54.8438,11.1563 54.1458,10.9167 53.625,10.4375 C53.1042,9.95833 52.8438,9.14323 52.8438,7.99219 C52.8438,6.84115 53.1042,6.02604 53.625,5.54688 C54.1458,5.07813 54.8438,4.84375 55.7188,4.84375 C56.0104,4.84375 56.3177,4.88542 56.6406,4.96875 C56.9635,5.04167 57.2344,5.14583 57.4531,5.28125 M62.9688,6.01563 C62.6146,5.52604 62.1302,5.28125 61.5156,5.28125 C60.901,5.28125 60.4167,5.52604 60.0625,6.01563 C59.7083,6.49479 59.5313,7.15104 59.5313,7.98438 C59.5313,8.83854 59.7083,9.51042 60.0625,10 C60.4167,10.4896 60.901,10.7344 61.5156,10.7344 C62.1302,10.7344 62.6146,10.4896 62.9688,10 C63.3229,9.5 63.5,8.82813 63.5,7.98438 C63.5,7.16146 63.3229,6.50521 62.9688,6.01563 M61.5156,4.84375 C62.276,4.84375 62.8802,5.13021 63.3281,5.70313 C63.776,6.27604 64,7.03646 64,7.98438 C64,8.97396 63.776,9.75521 63.3281,10.3281 C62.8802,10.901 62.276,11.1875 61.5156,11.1875 C60.7344,11.1875 60.1198,10.901 59.6719,10.3281 C59.2344,9.75521 59.0156,8.97396 59.0156,7.98438 C59.0156,7.02604 59.2396,6.26302 59.6875,5.69531 C60.1354,5.1276 60.7448,4.84375 61.5156,4.84375 M66.0469,8.60938 L66.0469,4.98438 L66.5313,4.98438 L66.5313,8.57813 C66.5313,9.35938 66.6563,9.90885 66.9063,10.2266 C67.1563,10.5443 67.526,10.7031 68.0156,10.7031 C68.5885,10.7031 69.0781,10.5313 69.4844,10.1875 C69.8906,9.84375 70.0938,9.24479 70.0938,8.39063 L70.0938,4.98438 L70.5781,4.98438 L70.5781,11 L70.0938,11 L70.0938,9.875 C69.9167,10.2396 69.6823,10.5156 69.3906,10.7031 C68.974,10.9948 68.5104,11.1406 68,11.1406 C67.4063,11.1406 66.9323,10.9375 66.5781,10.5313 C66.224,10.1354 66.0469,9.49479 66.0469,8.60938 M77.625,7.375 L77.625,11 L77.125,11 L77.125,7.40625 C77.125,6.625 77,6.07552 76.75,5.75781 C76.5,5.4401 76.1302,5.28125 75.6406,5.28125 C75.0677,5.28125 74.5833,5.45313 74.1875,5.79688 C73.7708,6.14063 73.5625,6.73958 73.5625,7.59375 L73.5625,11 L73.0781,11 L73.0781,4.98438 L73.5625,4.98438 L73.5625,6.10938 C73.7396,5.74479 73.974,5.46875 74.2656,5.28125 C74.6823,4.98958 75.1458,4.84375 75.6563,4.84375 C76.2604,4.84375 76.7396,5.04688 77.0938,5.45313 C77.4479,5.84896 77.625,6.48958 77.625,7.375 M80.5625,3.28125 L80.5625,4.98438 L82.5938,4.98438 L82.5938,5.40625 L80.5625,5.40625 L80.5625,9.01563 C80.5625,9.47396 80.6198,9.79688 80.7344,9.98438 C80.9844,10.3802 81.3438,10.5781 81.8125,10.5781 L82.5938,10.5781 L82.5938,11 L81.8281,11 C81.3385,11 80.9219,10.8568 80.5781,10.5703 C80.2344,10.2839 80.0625,9.76563 80.0625,9.01563 L80.0625,5.40625 L79.3438,5.40625 L79.3438,4.98438 L80.0625,4.98438 L80.0625,3.28125 L80.5625,3.28125"/>
</g>

<g fill="none" stroke="#000000" stroke-opacity="1" stroke-width="1" stroke-linecap="square" stroke-linejoin="bevel" transform="matrix(1.99946,0,0,1.99946,1028.95,21.994)"
font-family="sans" font-size="11" font-weight="100" font-style="normal" 
>
</g>

<g fill="none" stroke="#000000" stroke-opacity="1" stroke-width="1" stroke-linecap="square" stroke-linejoin="bevel" transform="matrix(1.99946,0,0,1.99946,1028.95,21.994)"
font-family="Ubuntu" font-size="11" font-weight="400" font-style="normal" 
>
</g>

<g fill="none" stroke="#000000" stroke-opacity="1" stroke-width="1" stroke-linecap="square" stroke-linejoin="bevel" transform="matrix(1.99946,0,0,1.99946,-0.00279924,71.9805)"
font-family="Ubuntu" font-size="11" font-weight="400" font-style="normal" 
>
</g>

<g fill="none" stroke="#000000" stroke-opacity="1" stroke-width="1" stroke-linecap="square" stroke-linejoin="bevel" transform="matrix(1.99946,0,0,1.99946,-0.00279924,71.9805)"
font-family="Ubuntu" font-size="11" font-weight="400" font-style="normal" 
>
</g>

<g fill="none" stroke="#000000" stroke-opacity="1" stroke-width="1" stroke-linecap="square" stroke-linejoin="bevel" transform="matrix(1.99946,0,0,1.99946,-0.00279924,71.9805)"
font-family="Ubuntu" font-size="11" font-weight="400" font-style="normal" 
>
</g>

<g fill="none" stroke="#000000" stroke-opacity="1" stroke-width="1" stroke-linecap="square" stroke-linejoin="round" transform="matrix(1.99946,0,0,1.99946,-0.00279924,71.9805)"
font-family="Ubuntu" font-size="11" font-weight="400" font-style="normal" 
>
<rect x="210.782" y="-35.5" width="75.9968" height="35"/>
</g>

<g fill="none" stroke="#000000" stroke-opacity="1" stroke-width="1" stroke-linecap="square" stroke-linejoin="bevel" transform="matrix(1.99946,0,0,1.99946,-0.00279924,71.9805)"
font-family="Ubuntu" font-size="11" font-weight="400" font-style="normal" 
>
</g>

<g fill="none" stroke="#000000" stroke-opacity="1" stroke-width="1" stroke-linecap="square" stroke-linejoin="bevel" transform="matrix(1.99946,0,0,1.99946,450.841,21.994)"
font-family="Ubuntu" font-size="11" font-weight="400" font-style="normal" 
>
</g>

<g fill="none" stroke="#000000" stroke-opacity="1" stroke-width="1" stroke-linecap="square" stroke-linejoin="bevel" transform="matrix(1.99946,0,0,1.99946,450.841,21.994)"
font-family="sans" font-size="11" font-weight="100" font-style="normal" 
>
</g>

<g fill="#000000" fill-opacity="1" stroke="#000000" stroke-opacity="1" stroke-width="1" stroke-linecap="square" stroke-linejoin="round" transform="matrix(1.99946,0,0,1.99946,450.841,21.994)"
font-family="sans" font-size="11" font-weight="100" font-style="normal" 
>
<path vector-effect="none" fill-rule="nonzero" d="M2.96875,2.98438 L3.53125,2.98438 L0.734375,12.0156 L0.171875,12.0156 L2.96875,2.98438 M9.5,7.375 L9.5,11 L9,11 L9,7.40625 C9,6.625 8.875,6.07552 8.625,5.75781 C8.375,5.4401 8.00521,5.28125 7.51563,5.28125 C6.94271,5.28125 6.45833,5.45313 6.0625,5.79688 C5.64583,6.14063 5.4375,6.73958 5.4375,7.59375 L5.4375,11 L4.95313,11 L4.95313,4.98438 L5.4375,4.98438 L5.4375,6.10938 C5.61458,5.74479 5.84896,5.46875 6.14063,5.28125 C6.55729,4.98958 7.02083,4.84375 7.53125,4.84375 C8.13542,4.84375 8.61458,5.04688 8.96875,5.45313 C9.32292,5.84896 9.5,6.48958 9.5,7.375 M11.8594,8.60938 L11.8594,4.98438 L12.3438,4.98438 L12.3438,8.57813 C12.3438,9.35938 12.4688,9.90885 12.7188,10.2266 C12.9688,10.5443 13.3385,10.7031 13.8281,10.7031 C14.401,10.7031 14.8906,10.5313 15.2969,10.1875 C15.7031,9.84375 15.9063,9.24479 15.9063,8.39063 L15.9063,4.98438 L16.3906,4.98438 L16.3906,11 L15.9063,11 L15.9063,9.875 C15.7292,10.2396 15.4948,10.5156 15.2031,10.7031 C14.7865,10.9948 14.3229,11.1406 13.8125,11.1406 C13.2188,11.1406 12.7448,10.9375 12.3906,10.5313 C12.0365,10.1354 11.8594,9.49479 11.8594,8.60938 M23.2188,6.29688 C23.4063,5.80729 23.6979,5.44271 24.0938,5.20313 C24.4792,4.96354 24.9323,4.84375 25.4531,4.84375 C25.974,4.84375 26.3906,5.02604 26.7031,5.39063 C27.026,5.75521 27.1875,6.41667 27.1875,7.375 L27.1875,11 L26.7031,11 L26.7031,7.40625 C26.7031,6.57292 26.5885,6.01042 26.3594,5.71875 C26.1302,5.42708 25.8229,5.28125 25.4375,5.28125 C24.8854,5.28125 24.401,5.44792 23.9844,5.78125 C23.5156,6.15625 23.2813,6.76042 23.2813,7.59375 L23.2813,11 L22.7969,11 L22.7969,7.40625 C22.7969,6.60417 22.6849,6.04948 22.4609,5.74219 C22.237,5.4349 21.9271,5.28125 21.5313,5.28125 C20.9792,5.28125 20.4948,5.45313 20.0781,5.79688 C19.6094,6.16146 19.375,6.76042 19.375,7.59375 L19.375,11 L18.8906,11 L18.8906,4.98438 L19.375,4.98438 L19.375,6.10938 C19.5521,5.71354 19.8281,5.40104 20.2031,5.17188 C20.5677,4.95313 21.0208,4.84375 21.5625,4.84375 C21.9167,4.84375 22.2552,4.95833 22.5781,5.1875 C22.8281,5.375 23.0417,5.74479 23.2188,6.29688 M33.3125,10.0938 C33.7292,9.67708 33.9375,8.97917 33.9375,8 C33.9375,7.02083 33.7292,6.32292 33.3125,5.90625 C32.8958,5.48958 32.4583,5.28125 32,5.28125 C31.5521,5.28125 31.1198,5.48958 30.7031,5.90625 C30.2969,6.32292 30.0938,7.02083 30.0938,8 C30.0938,8.97917 30.2969,9.67708 30.7031,10.0938 C31.1198,10.5104 31.5521,10.7188 32,10.7188 C32.4583,10.7188 32.8958,10.5104 33.3125,10.0938 M30.0781,6.35938 C30.3073,5.83854 30.5521,5.47917 30.8125,5.28125 C31.2188,4.98958 31.6042,4.84375 31.9688,4.84375 C32.6771,4.84375 33.2682,5.13281 33.7422,5.71094 C34.2161,6.28906 34.4531,7.05208 34.4531,8 C34.4531,8.94792 34.2161,9.71094 33.7422,10.2891 C33.2682,10.8672 32.6771,11.1563 31.9688,11.1563 C31.6042,11.1563 31.2188,11.0052 30.8125,10.7031 C30.5521,10.5156 30.3073,10.1615 30.0781,9.64063 L30.0781,11 L29.5938,11 L29.5938,2.64063 L30.0781,2.64063 L30.0781,6.35938 M41.25,7.75 L41.25,8.0625 L36.6875,8.0625 C36.6875,9.02083 36.875,9.69792 37.25,10.0938 C37.6667,10.5208 38.2813,10.7344 39.0938,10.7344 C39.3125,10.7344 39.599,10.6875 39.9531,10.5938 C40.3073,10.5 40.6615,10.3594 41.0156,10.1719 L41.0156,10.6875 C40.6615,10.8438 40.2995,10.9609 39.9297,11.0391 C39.5599,11.1172 39.2656,11.1563 39.0469,11.1563 C38.1198,11.1563 37.4219,10.9063 36.9531,10.4063 C36.4427,9.875 36.1875,9.09375 36.1875,8.0625 C36.1875,6.98958 36.4167,6.1875 36.875,5.65625 C37.3542,5.11458 38.0208,4.84375 38.875,4.84375 C39.6563,4.84375 40.25,5.10417 40.6563,5.625 C41.0521,6.16667 41.25,6.875 41.25,7.75 M40.75,7.64063 C40.75,6.79688 40.5573,6.18229 40.1719,5.79688 C39.8594,5.45313 39.4271,5.28125 38.875,5.28125 C38.2813,5.28125 37.7813,5.45833 37.375,5.8125 C37,6.14583 36.776,6.75521 36.7031,7.64063 L40.75,7.64063 M46.5938,5.40625 C46.5104,5.36458 46.401,5.33333 46.2656,5.3125 C46.1406,5.29167 45.9896,5.28125 45.8125,5.28125 C45.1979,5.28125 44.6927,5.50521 44.2969,5.95313 C43.974,6.31771 43.8125,6.94271 43.8125,7.82813 L43.8125,11 L43.3281,11 L43.3281,4.98438 L43.8125,4.98438 L43.8125,6.10938 C43.9792,5.78646 44.2083,5.51563 44.5,5.29688 C44.8958,4.99479 45.3646,4.84375 45.9063,4.84375 C46.0521,4.84375 46.1771,4.84896 46.2813,4.85938 C46.3854,4.85938 46.4896,4.86979 46.5938,4.89063 L46.5938,5.40625"/>
</g>

<g fill="none" stroke="#000000" stroke-opacity="1" stroke-width="1" stroke-linecap="square" stroke-linejoin="bevel" transform="matrix(1.99946,0,0,1.99946,450.841,21.994)"
font-family="sans" font-size="11" font-weight="100" font-style="normal" 
>
</g>

<g fill="none" stroke="#000000" stroke-opacity="1" stroke-width="1" stroke-linecap="square" stroke-linejoin="bevel" transform="matrix(1.99946,0,0,1.99946,450.841,21.994)"
font-family="Ubuntu" font-size="11" font-weight="400" font-style="normal" 
>
</g>

<g fill="none" stroke="#000000" stroke-opacity="1" stroke-width="1" stroke-linecap="square" stroke-linejoin="bevel" transform="matrix(1.99946,0,0,1.99946,-0.00279924,71.9805)"
font-family="Ubuntu" font-size="11" font-weight="400" font-style="normal" 
>
</g>

<g fill="none" stroke="#000000" stroke-opacity="1" stroke-width="1" stroke-linecap="square" stroke-linejoin="bevel" transform="matrix(1.99946,0,0,1.99946,-0.00279924,71.9805)"
font-family="Ubuntu" font-size="11" font-weight="400" font-style="normal" 
>
</g>

<g fill="none" stroke="#000000" stroke-opacity="1" stroke-width="1" stroke-linecap="square" stroke-linejoin="bevel" transform="matrix(1.99946,0,0,1.99946,-0.00279924,71.9805)"
font-family="Ubuntu" font-size="11" font-weight="400" font-style="normal" 
>
</g>

<g fill="none" stroke="#000000" stroke-opacity="1" stroke-width="1" stroke-linecap="square" stroke-linejoin="round" transform="matrix(1.99946,0,0,1.99946,-0.00279924,71.9805)"
font-family="Ubuntu" font-size="11" font-weight="400" font-style="normal" 
>
<ellipse cx="390.97" cy="-18" rx="89.1904" ry="17.5"/>
</g>

<g fill="none" stroke="#000000" stroke-opacity="1" stroke-width="1" stroke-linecap="square" stroke-linejoin="bevel" transform="matrix(1.99946,0,0,1.99946,-0.00279924,71.9805)"
font-family="Ubuntu" font-size="11" font-weight="400" font-style="normal" 
>
</g>

<g fill="none" stroke="#000000" stroke-opacity="1" stroke-width="1" stroke-linecap="square" stroke-linejoin="bevel" transform="matrix(1.99946,0,0,1.99946,687.36,21.994)"
font-family="Ubuntu" font-size="11" font-weight="400" font-style="normal" 
>
</g>

<g fill="none" stroke="#000000" stroke-opacity="1" stroke-width="1" stroke-linecap="square" stroke-linejoin="bevel" transform="matrix(1.99946,0,0,1.99946,687.36,21.994)"
font-family="sans" font-size="11" font-weight="100" font-style="normal" 
>
</g>

<g fill="#000000" fill-opacity="1" stroke="#000000" stroke-opacity="1" stroke-width="1" stroke-linecap="square" stroke-linejoin="round" transform="matrix(1.99946,0,0,1.99946,687.36,21.994)"
font-family="sans" font-size="11" font-weight="100" font-style="normal" 
>
<path vector-effect="none" fill-rule="nonzero" d="M2.96875,2.98438 L3.53125,2.98438 L0.734375,12.0156 L0.171875,12.0156 L2.96875,2.98438 M9.5,7.375 L9.5,11 L9,11 L9,7.40625 C9,6.625 8.875,6.07552 8.625,5.75781 C8.375,5.4401 8.00521,5.28125 7.51563,5.28125 C6.94271,5.28125 6.45833,5.45313 6.0625,5.79688 C5.64583,6.14063 5.4375,6.73958 5.4375,7.59375 L5.4375,11 L4.95313,11 L4.95313,4.98438 L5.4375,4.98438 L5.4375,6.10938 C5.61458,5.74479 5.84896,5.46875 6.14063,5.28125 C6.55729,4.98958 7.02083,4.84375 7.53125,4.84375 C8.13542,4.84375 8.61458,5.04688 8.96875,5.45313 C9.32292,5.84896 9.5,6.48958 9.5,7.375 M11.8594,8.60938 L11.8594,4.98438 L12.3438,4.98438 L12.3438,8.57813 C12.3438,9.35938 12.4688,9.90885 12.7188,10.2266 C12.9688,10.5443 13.3385,10.7031 13.8281,10.7031 C14.401,10.7031 14.8906,10.5313 15.2969,10.1875 C15.7031,9.84375 15.9063,9.24479 15.9063,8.39063 L15.9063,4.98438 L16.3906,4.98438 L16.3906,11 L15.9063,11 L15.9063,9.875 C15.7292,10.2396 15.4948,10.5156 15.2031,10.7031 C14.7865,10.9948 14.3229,11.1406 13.8125,11.1406 C13.2188,11.1406 12.7448,10.9375 12.3906,10.5313 C12.0365,10.1354 11.8594,9.49479 11.8594,8.60938 M23.2188,6.29688 C23.4063,5.80729 23.6979,5.44271 24.0938,5.20313 C24.4792,4.96354 24.9323,4.84375 25.4531,4.84375 C25.974,4.84375 26.3906,5.02604 26.7031,5.39063 C27.026,5.75521 27.1875,6.41667 27.1875,7.375 L27.1875,11 L26.7031,11 L26.7031,7.40625 C26.7031,6.57292 26.5885,6.01042 26.3594,5.71875 C26.1302,5.42708 25.8229,5.28125 25.4375,5.28125 C24.8854,5.28125 24.401,5.44792 23.9844,5.78125 C23.5156,6.15625 23.2813,6.76042 23.2813,7.59375 L23.2813,11 L22.7969,11 L22.7969,7.40625 C22.7969,6.60417 22.6849,6.04948 22.4609,5.74219 C22.237,5.4349 21.9271,5.28125 21.5313,5.28125 C20.9792,5.28125 20.4948,5.45313 20.0781,5.79688 C19.6094,6.16146 19.375,6.76042 19.375,7.59375 L19.375,11 L18.8906,11 L18.8906,4.98438 L19.375,4.98438 L19.375,6.10938 C19.5521,5.71354 19.8281,5.40104 20.2031,5.17188 C20.5677,4.95313 21.0208,4.84375 21.5625,4.84375 C21.9167,4.84375 22.2552,4.95833 22.5781,5.1875 C22.8281,5.375 23.0417,5.74479 23.2188,6.29688 M33.3125,10.0938 C33.7292,9.67708 33.9375,8.97917 33.9375,8 C33.9375,7.02083 33.7292,6.32292 33.3125,5.90625 C32.8958,5.48958 32.4583,5.28125 32,5.28125 C31.5521,5.28125 31.1198,5.48958 30.7031,5.90625 C30.2969,6.32292 30.0938,7.02083 30.0938,8 C30.0938,8.97917 30.2969,9.67708 30.7031,10.0938 C31.1198,10.5104 31.5521,10.7188 32,10.7188 C32.4583,10.7188 32.8958,10.5104 33.3125,10.0938 M30.0781,6.35938 C30.3073,5.83854 30.5521,5.47917 30.8125,5.28125 C31.2188,4.98958 31.6042,4.84375 31.9688,4.84375 C32.6771,4.84375 33.2682,5.13281 33.7422,5.71094 C34.2161,6.28906 34.4531,7.05208 34.4531,8 C34.4531,8.94792 34.2161,9.71094 33.7422,10.2891 C33.2682,10.8672 32.6771,11.1563 31.9688,11.1563 C31.6042,11.1563 31.2188,11.0052 30.8125,10.7031 C30.5521,10.5156 30.3073,10.1615 30.0781,9.64063 L30.0781,11 L29.5938,11 L29.5938,2.64063 L30.0781,2.64063 L30.0781,6.35938 M41.25,7.75 L41.25,8.0625 L36.6875,8.0625 C36.6875,9.02083 36.875,9.69792 37.25,10.0938 C37.6667,10.5208 38.2813,10.7344 39.0938,10.7344 C39.3125,10.7344 39.599,10.6875 39.9531,10.5938 C40.3073,10.5 40.6615,10.3594 41.0156,10.1719 L41.0156,10.6875 C40.6615,10.8438 40.2995,10.9609 39.9297,11.0391 C39.5599,11.1172 39.2656,11.1563 39.0469,11.1563 C38.1198,11.1563 37.4219,10.9063 36.9531,10.4063 C36.4427,9.875 36.1875,9.09375 36.1875,8.0625 C36.1875,6.98958 36.4167,6.1875 36.875,5.65625 C37.3542,5.11458 38.0208,4.84375 38.875,4.84375 C39.6563,4.84375 40.25,5.10417 40.6563,5.625 C41.0521,6.16667 41.25,6.875 41.25,7.75 M40.75,7.64063 C40.75,6.79688 40.5573,6.18229 40.1719,5.79688 C39.8594,5.45313 39.4271,5.28125 38.875,5.28125 C38.2813,5.28125 37.7813,5.45833 37.375,5.8125 C37,6.14583 36.776,6.75521 36.7031,7.64063 L40.75,7.64063 M46.5938,5.40625 C46.5104,5.36458 46.401,5.33333 46.2656,5.3125 C46.1406,5.29167 45.9896,5.28125 45.8125,5.28125 C45.1979,5.28125 44.6927,5.50521 44.2969,5.95313 C43.974,6.31771 43.8125,6.94271 43.8125,7.82813 L43.8125,11 L43.3281,11 L43.3281,4.98438 L43.8125,4.98438 L43.8125,6.10938 C43.9792,5.78646 44.2083,5.51563 44.5,5.29688 C44.8958,4.99479 45.3646,4.84375 45.9063,4.84375 C46.0521,4.84375 46.1771,4.84896 46.2813,4.85938 C46.3854,4.85938 46.4896,4.86979 46.5938,4.89063 L46.5938,5.40625 M52.2031,13.1719 L52.2031,13.5938 L46.4844,13.5938 L46.4844,13.1719 L52.2031,13.1719 M57.4531,5.28125 L57.4531,5.79688 C57.1615,5.61979 56.9167,5.5 56.7188,5.4375 C56.3854,5.33333 56.0677,5.28125 55.7656,5.28125 C54.901,5.28125 54.2813,5.5026 53.9063,5.94531 C53.5313,6.38802 53.3438,7.07292 53.3438,8 C53.3438,8.9375 53.5313,9.6276 53.9063,10.0703 C54.2813,10.513 54.901,10.7344 55.7656,10.7344 C56.0573,10.7344 56.3385,10.6927 56.6094,10.6094 C56.901,10.5365 57.1823,10.4219 57.4531,10.2656 L57.4531,10.7656 C57.1823,10.901 56.901,11 56.6094,11.0625 C56.3073,11.125 56.0104,11.1563 55.7188,11.1563 C54.8438,11.1563 54.1458,10.9167 53.625,10.4375 C53.1042,9.95833 52.8438,9.14323 52.8438,7.99219 C52.8438,6.84115 53.1042,6.02604 53.625,5.54688 C54.1458,5.07813 54.8438,4.84375 55.7188,4.84375 C56.0104,4.84375 56.3177,4.88542 56.6406,4.96875 C56.9635,5.04167 57.2344,5.14583 57.4531,5.28125 M62.9688,6.01563 C62.6146,5.52604 62.1302,5.28125 61.5156,5.28125 C60.901,5.28125 60.4167,5.52604 60.0625,6.01563 C59.7083,6.49479 59.5313,7.15104 59.5313,7.98438 C59.5313,8.83854 59.7083,9.51042 60.0625,10 C60.4167,10.4896 60.901,10.7344 61.5156,10.7344 C62.1302,10.7344 62.6146,10.4896 62.9688,10 C63.3229,9.5 63.5,8.82813 63.5,7.98438 C63.5,7.16146 63.3229,6.50521 62.9688,6.01563 M61.5156,4.84375 C62.276,4.84375 62.8802,5.13021 63.3281,5.70313 C63.776,6.27604 64,7.03646 64,7.98438 C64,8.97396 63.776,9.75521 63.3281,10.3281 C62.8802,10.901 62.276,11.1875 61.5156,11.1875 C60.7344,11.1875 60.1198,10.901 59.6719,10.3281 C59.2344,9.75521 59.0156,8.97396 59.0156,7.98438 C59.0156,7.02604 59.2396,6.26302 59.6875,5.69531 C60.1354,5.1276 60.7448,4.84375 61.5156,4.84375 M66.0469,8.60938 L66.0469,4.98438 L66.5313,4.98438 L66.5313,8.57813 C66.5313,9.35938 66.6563,9.90885 66.9063,10.2266 C67.1563,10.5443 67.526,10.7031 68.0156,10.7031 C68.5885,10.7031 69.0781,10.5313 69.4844,10.1875 C69.8906,9.84375 70.0938,9.24479 70.0938,8.39063 L70.0938,4.98438 L70.5781,4.98438 L70.5781,11 L70.0938,11 L70.0938,9.875 C69.9167,10.2396 69.6823,10.5156 69.3906,10.7031 C68.974,10.9948 68.5104,11.1406 68,11.1406 C67.4063,11.1406 66.9323,10.9375 66.5781,10.5313 C66.224,10.1354 66.0469,9.49479 66.0469,8.60938 M77.625,7.375 L77.625,11 L77.125,11 L77.125,7.40625 C77.125,6.625 77,6.07552 76.75,5.75781 C76.5,5.4401 76.1302,5.28125 75.6406,5.28125 C75.0677,5.28125 74.5833,5.45313 74.1875,5.79688 C73.7708,6.14063 73.5625,6.73958 73.5625,7.59375 L73.5625,11 L73.0781,11 L73.0781,4.98438 L73.5625,4.98438 L73.5625,6.10938 C73.7396,5.74479 73.974,5.46875 74.2656,5.28125 C74.6823,4.98958 75.1458,4.84375 75.6563,4.84375 C76.2604,4.84375 76.7396,5.04688 77.0938,5.45313 C77.4479,5.84896 77.625,6.48958 77.625,7.375 M80.5625,3.28125 L80.5625,4.98438 L82.5938,4.98438 L82.5938,5.40625 L80.5625,5.40625 L80.5625,9.01563 C80.5625,9.47396 80.6198,9.79688 80.7344,9.98438 C80.9844,10.3802 81.3438,10.5781 81.8125,10.5781 L82.5938,10.5781 L82.5938,11 L81.8281,11 C81.3385,11 80.9219,10.8568 80.5781,10.5703 C80.2344,10.2839 80.0625,9.76563 80.0625,9.01563 L80.0625,5.40625 L79.3438,5.40625 L79.3438,4.98438 L80.0625,4.98438 L80.0625,3.28125 L80.5625,3.28125 M89.0469,7.75 L89.0469,8.0625 L84.4844,8.0625 C84.4844,9.02083 84.6719,9.69792 85.0469,10.0938 C85.4635,10.5208 86.0781,10.7344 86.8906,10.7344 C87.1094,10.7344 87.3958,10.6875 87.75,10.5938 C88.1042,10.5 88.4583,10.3594 88.8125,10.1719 L88.8125,10.6875 C88.4583,10.8438 88.0964,10.9609 87.7266,11.0391 C87.3568,11.1172 87.0625,11.1563 86.8438,11.1563 C85.9167,11.1563 85.2188,10.9063 84.75,10.4063 C84.2396,9.875 83.9844,9.09375 83.9844,8.0625 C83.9844,6.98958 84.2135,6.1875 84.6719,5.65625 C85.151,5.11458 85.8177,4.84375 86.6719,4.84375 C87.4531,4.84375 88.0469,5.10417 88.4531,5.625 C88.849,6.16667 89.0469,6.875 89.0469,7.75 M88.5469,7.64063 C88.5469,6.79688 88.3542,6.18229 87.9688,5.79688 C87.6563,5.45313 87.224,5.28125 86.6719,5.28125 C86.0781,5.28125 85.5781,5.45833 85.1719,5.8125 C84.7969,6.14583 84.5729,6.75521 84.5,7.64063 L88.5469,7.64063 M94.3906,5.40625 C94.3073,5.36458 94.1979,5.33333 94.0625,5.3125 C93.9375,5.29167 93.7865,5.28125 93.6094,5.28125 C92.9948,5.28125 92.4896,5.50521 92.0938,5.95313 C91.7708,6.31771 91.6094,6.94271 91.6094,7.82813 L91.6094,11 L91.125,11 L91.125,4.98438 L91.6094,4.98438 L91.6094,6.10938 C91.776,5.78646 92.0052,5.51563 92.2969,5.29688 C92.6927,4.99479 93.1615,4.84375 93.7031,4.84375 C93.849,4.84375 93.974,4.84896 94.0781,4.85938 C94.1823,4.85938 94.2865,4.86979 94.3906,4.89063 L94.3906,5.40625"/>
</g>

<g fill="none" stroke="#000000" stroke-opacity="1" stroke-width="1" stroke-linecap="square" stroke-linejoin="bevel" transform="matrix(1.99946,0,0,1.99946,687.36,21.994)"
font-family="sans" font-size="11" font-weight="100" font-style="normal" 
>
</g>

<g fill="none" stroke="#000000" stroke-opacity="1" stroke-width="1" stroke-linecap="square" stroke-linejoin="bevel" transform="matrix(1.99946,0,0,1.99946,687.36,21.994)"
font-family="Ubuntu" font-size="11" font-weight="400" font-style="normal" 
>
</g>

<g fill="none" stroke="#000000" stroke-opacity="1" stroke-width="1" stroke-linecap="square" stroke-linejoin="bevel" transform="matrix(1.99946,0,0,1.99946,-0.00279924,71.9805)"
font-family="Ubuntu" font-size="11" font-weight="400" font-style="normal" 
>
</g>

<g fill="none" stroke="#000000" stroke-opacity="1" stroke-width="1" stroke-linecap="square" stroke-linejoin="bevel" transform="matrix(1.99946,0,0,1.99946,-0.00279924,71.9805)"
font-family="Ubuntu" font-size="11" font-weight="400" font-style="normal" 
>
</g>

<g fill="none" stroke="#000000" stroke-opacity="1" stroke-width="1" stroke-linecap="square" stroke-linejoin="bevel" transform="matrix(1.99946,0,0,1.99946,-0.00279924,71.9805)"
font-family="Ubuntu" font-size="11" font-weight="400" font-style="normal" 
>
</g>

<g fill="none" stroke="#000000" stroke-opacity="1" stroke-width="1" stroke-linecap="square" stroke-linejoin="round" transform="matrix(1.99946,0,0,1.99946,-0.00279924,71.9805)"
font-family="Ubuntu" font-size="11" font-weight="400" font-style="normal" 
>
<ellipse cx="98.141" cy="-18" rx="97.6396" ry="17.5"/>
</g>

<g fill="none" stroke="#000000" stroke-opacity="1" stroke-width="1" stroke-linecap="square" stroke-linejoin="bevel" transform="matrix(1.99946,0,0,1.99946,-0.00279924,71.9805)"
font-family="Ubuntu" font-size="11" font-weight="400" font-style="normal" 
>
</g>

<g fill="none" stroke="#000000" stroke-opacity="1" stroke-width="1" stroke-linecap="square" stroke-linejoin="bevel" transform="matrix(1.99946,0,0,1.99946,93.1914,21.994)"
font-family="Ubuntu" font-size="11" font-weight="400" font-style="normal" 
>
</g>

<g fill="none" stroke="#000000" stroke-opacity="1" stroke-width="1" stroke-linecap="square" stroke-linejoin="bevel" transform="matrix(1.99946,0,0,1.99946,93.1914,21.994)"
font-family="sans" font-size="11" font-weight="100" font-style="normal" 
>
</g>

<g fill="#000000" fill-opacity="1" stroke="#000000" stroke-opacity="1" stroke-width="1" stroke-linecap="square" stroke-linejoin="round" transform="matrix(1.99946,0,0,1.99946,93.1914,21.994)"
font-family="sans" font-size="11" font-weight="100" font-style="normal" 
>
<path vector-effect="none" fill-rule="nonzero" d="M2.96875,2.98438 L3.53125,2.98438 L0.734375,12.0156 L0.171875,12.0156 L2.96875,2.98438 M9.5,7.375 L9.5,11 L9,11 L9,7.40625 C9,6.625 8.875,6.07552 8.625,5.75781 C8.375,5.4401 8.00521,5.28125 7.51563,5.28125 C6.94271,5.28125 6.45833,5.45313 6.0625,5.79688 C5.64583,6.14063 5.4375,6.73958 5.4375,7.59375 L5.4375,11 L4.95313,11 L4.95313,4.98438 L5.4375,4.98438 L5.4375,6.10938 C5.61458,5.74479 5.84896,5.46875 6.14063,5.28125 C6.55729,4.98958 7.02083,4.84375 7.53125,4.84375 C8.13542,4.84375 8.61458,5.04688 8.96875,5.45313 C9.32292,5.84896 9.5,6.48958 9.5,7.375 M11.8594,8.60938 L11.8594,4.98438 L12.3438,4.98438 L12.3438,8.57813 C12.3438,9.35938 12.4688,9.90885 12.7188,10.2266 C12.9688,10.5443 13.3385,10.7031 13.8281,10.7031 C14.401,10.7031 14.8906,10.5313 15.2969,10.1875 C15.7031,9.84375 15.9063,9.24479 15.9063,8.39063 L15.9063,4.98438 L16.3906,4.98438 L16.3906,11 L15.9063,11 L15.9063,9.875 C15.7292,10.2396 15.4948,10.5156 15.2031,10.7031 C14.7865,10.9948 14.3229,11.1406 13.8125,11.1406 C13.2188,11.1406 12.7448,10.9375 12.3906,10.5313 C12.0365,10.1354 11.8594,9.49479 11.8594,8.60938 M23.2188,6.29688 C23.4063,5.80729 23.6979,5.44271 24.0938,5.20313 C24.4792,4.96354 24.9323,4.84375 25.4531,4.84375 C25.974,4.84375 26.3906,5.02604 26.7031,5.39063 C27.026,5.75521 27.1875,6.41667 27.1875,7.375 L27.1875,11 L26.7031,11 L26.7031,7.40625 C26.7031,6.57292 26.5885,6.01042 26.3594,5.71875 C26.1302,5.42708 25.8229,5.28125 25.4375,5.28125 C24.8854,5.28125 24.401,5.44792 23.9844,5.78125 C23.5156,6.15625 23.2813,6.76042 23.2813,7.59375 L23.2813,11 L22.7969,11 L22.7969,7.40625 C22.7969,6.60417 22.6849,6.04948 22.4609,5.74219 C22.237,5.4349 21.9271,5.28125 21.5313,5.28125 C20.9792,5.28125 20.4948,5.45313 20.0781,5.79688 C19.6094,6.16146 19.375,6.76042 19.375,7.59375 L19.375,11 L18.8906,11 L18.8906,4.98438 L19.375,4.98438 L19.375,6.10938 C19.5521,5.71354 19.8281,5.40104 20.2031,5.17188 C20.5677,4.95313 21.0208,4.84375 21.5625,4.84375 C21.9167,4.84375 22.2552,4.95833 22.5781,5.1875 C22.8281,5.375 23.0417,5.74479 23.2188,6.29688 M33.3125,10.0938 C33.7292,9.67708 33.9375,8.97917 33.9375,8 C33.9375,7.02083 33.7292,6.32292 33.3125,5.90625 C32.8958,5.48958 32.4583,5.28125 32,5.28125 C31.5521,5.28125 31.1198,5.48958 30.7031,5.90625 C30.2969,6.32292 30.0938,7.02083 30.0938,8 C30.0938,8.97917 30.2969,9.67708 30.7031,10.0938 C31.1198,10.5104 31.5521,10.7188 32,10.7188 C32.4583,10.7188 32.8958,10.5104 33.3125,10.0938 M30.0781,6.35938 C30.3073,5.83854 30.5521,5.47917 30.8125,5.28125 C31.2188,4.98958 31.6042,4.84375 31.9688,4.84375 C32.6771,4.84375 33.2682,5.13281 33.7422,5.71094 C34.2161,6.28906 34.4531,7.05208 34.4531,8 C34.4531,8.94792 34.2161,9.71094 33.7422,10.2891 C33.2682,10.8672 32.6771,11.1563 31.9688,11.1563 C31.6042,11.1563 31.2188,11.0052 30.8125,10.7031 C30.5521,10.5156 30.3073,10.1615 30.0781,9.64063 L30.0781,11 L29.5938,11 L29.5938,2.64063 L30.0781,2.64063 L30.0781,6.35938 M41.25,7.75 L41.25,8.0625 L36.6875,8.0625 C36.6875,9.02083 36.875,9.69792 37.25,10.0938 C37.6667,10.5208 38.2813,10.7344 39.0938,10.7344 C39.3125,10.7344 39.599,10.6875 39.9531,10.5938 C40.3073,10.5 40.6615,10.3594 41.0156,10.1719 L41.0156,10.6875 C40.6615,10.8438 40.2995,10.9609 39.9297,11.0391 C39.5599,11.1172 39.2656,11.1563 39.0469,11.1563 C38.1198,11.1563 37.4219,10.9063 36.9531,10.4063 C36.4427,9.875 36.1875,9.09375 36.1875,8.0625 C36.1875,6.98958 36.4167,6.1875 36.875,5.65625 C37.3542,5.11458 38.0208,4.84375 38.875,4.84375 C39.6563,4.84375 40.25,5.10417 40.6563,5.625 C41.0521,6.16667 41.25,6.875 41.25,7.75 M40.75,7.64063 C40.75,6.79688 40.5573,6.18229 40.1719,5.79688 C39.8594,5.45313 39.4271,5.28125 38.875,5.28125 C38.2813,5.28125 37.7813,5.45833 37.375,5.8125 C37,6.14583 36.776,6.75521 36.7031,7.64063 L40.75,7.64063 M46.5938,5.40625 C46.5104,5.36458 46.401,5.33333 46.2656,5.3125 C46.1406,5.29167 45.9896,5.28125 45.8125,5.28125 C45.1979,5.28125 44.6927,5.50521 44.2969,5.95313 C43.974,6.31771 43.8125,6.94271 43.8125,7.82813 L43.8125,11 L43.3281,11 L43.3281,4.98438 L43.8125,4.98438 L43.8125,6.10938 C43.9792,5.78646 44.2083,5.51563 44.5,5.29688 C44.8958,4.99479 45.3646,4.84375 45.9063,4.84375 C46.0521,4.84375 46.1771,4.84896 46.2813,4.85938 C46.3854,4.85938 46.4896,4.86979 46.5938,4.89063 L46.5938,5.40625 M52.2031,13.1719 L52.2031,13.5938 L46.4844,13.5938 L46.4844,13.1719 L52.2031,13.1719 M53.8281,9.64063 L53.8281,13.2813 L53.3438,13.2813 L53.3438,4.98438 L53.8281,4.98438 L53.8281,6.35938 C54.0573,5.83854 54.3021,5.47917 54.5625,5.28125 C54.9688,4.98958 55.3542,4.84375 55.7188,4.84375 C56.4271,4.84375 57.0182,5.13281 57.4922,5.71094 C57.9661,6.28906 58.2031,7.05208 58.2031,8 C58.2031,8.94792 57.9661,9.71094 57.4922,10.2891 C57.0182,10.8672 56.4271,11.1563 55.7188,11.1563 C55.3542,11.1563 54.9688,11.0052 54.5625,10.7031 C54.3021,10.5156 54.0573,10.1615 53.8281,9.64063 M57.0625,10.0938 C57.4792,9.67708 57.6875,8.97917 57.6875,8 C57.6875,7.02083 57.4792,6.32292 57.0625,5.90625 C56.6458,5.48958 56.2083,5.28125 55.75,5.28125 C55.3021,5.28125 54.8698,5.48958 54.4531,5.90625 C54.0469,6.32292 53.8438,7.02083 53.8438,8 C53.8438,8.97917 54.0469,9.67708 54.4531,10.0938 C54.8698,10.5104 55.3021,10.7188 55.75,10.7188 C56.2083,10.7188 56.6458,10.5104 57.0625,10.0938 M60.25,8.60938 L60.25,4.98438 L60.7344,4.98438 L60.7344,8.57813 C60.7344,9.35938 60.8594,9.90885 61.1094,10.2266 C61.3594,10.5443 61.7292,10.7031 62.2188,10.7031 C62.7917,10.7031 63.2813,10.5313 63.6875,10.1875 C64.0938,9.84375 64.2969,9.24479 64.2969,8.39063 L64.2969,4.98438 L64.7813,4.98438 L64.7813,11 L64.2969,11 L64.2969,9.875 C64.1198,10.2396 63.8854,10.5156 63.5938,10.7031 C63.1771,10.9948 62.7135,11.1406 62.2031,11.1406 C61.6094,11.1406 61.1354,10.9375 60.7813,10.5313 C60.4271,10.1354 60.25,9.49479 60.25,8.60938 M71,10.0938 C71.4167,9.67708 71.625,8.97917 71.625,8 C71.625,7.02083 71.4167,6.32292 71,5.90625 C70.5833,5.48958 70.1458,5.28125 69.6875,5.28125 C69.2396,5.28125 68.8073,5.48958 68.3906,5.90625 C67.9844,6.32292 67.7813,7.02083 67.7813,8 C67.7813,8.97917 67.9844,9.67708 68.3906,10.0938 C68.8073,10.5104 69.2396,10.7188 69.6875,10.7188 C70.1458,10.7188 70.5833,10.5104 71,10.0938 M67.7656,6.35938 C67.9948,5.83854 68.2396,5.47917 68.5,5.28125 C68.9063,4.98958 69.2917,4.84375 69.6563,4.84375 C70.3646,4.84375 70.9557,5.13281 71.4297,5.71094 C71.9036,6.28906 72.1406,7.05208 72.1406,8 C72.1406,8.94792 71.9036,9.71094 71.4297,10.2891 C70.9557,10.8672 70.3646,11.1563 69.6563,11.1563 C69.2917,11.1563 68.9063,11.0052 68.5,10.7031 C68.2396,10.5156 67.9948,10.1615 67.7656,9.64063 L67.7656,11 L67.2813,11 L67.2813,2.64063 L67.7656,2.64063 L67.7656,6.35938 M74.25,2.64063 L74.7344,2.64063 L74.7344,11 L74.25,11 L74.25,2.64063 M77.2813,4.98438 L77.7813,4.98438 L77.7813,11 L77.2813,11 L77.2813,4.98438 M77.2813,2.64063 L77.7813,2.64063 L77.7813,3.3125 L77.2813,3.3125 L77.2813,2.64063 M83.75,5.15625 L83.75,5.70313 C83.3958,5.50521 83.1771,5.39583 83.0938,5.375 C82.8438,5.32292 82.5313,5.29167 82.1563,5.28125 C81.5938,5.28125 81.151,5.39063 80.8281,5.60938 C80.5781,5.79688 80.4531,6.11458 80.4531,6.5625 C80.4531,6.875 80.5729,7.11458 80.8125,7.28125 C81.0521,7.46875 81.401,7.61458 81.8594,7.71875 L82.2031,7.78125 C82.776,7.90625 83.2083,8.08333 83.5,8.3125 C83.8438,8.58333 84.0208,8.92708 84.0313,9.34375 C84.0313,9.90625 83.8646,10.349 83.5313,10.6719 C83.1771,10.9948 82.599,11.1563 81.7969,11.1563 C81.3594,11.1563 81.026,11.125 80.7969,11.0625 C80.5156,10.9896 80.224,10.8958 79.9219,10.7813 L79.9219,10.1563 C80.3594,10.4063 80.6406,10.5521 80.7656,10.5938 C81.1198,10.6875 81.474,10.7344 81.8281,10.7344 C82.401,10.7344 82.8281,10.6146 83.1094,10.375 C83.3906,10.125 83.5313,9.80729 83.5313,9.42188 C83.5313,9.08854 83.4375,8.84896 83.25,8.70313 C82.9792,8.48438 82.5521,8.30729 81.9688,8.17188 L81.625,8.09375 C81.1146,7.96875 80.7292,7.80208 80.4688,7.59375 C80.1354,7.32292 79.9688,6.99479 79.9688,6.60938 C79.9688,5.98438 80.1693,5.53385 80.5703,5.25781 C80.9714,4.98177 81.4635,4.84375 82.0469,4.84375 C82.5469,4.84375 82.8906,4.86979 83.0781,4.92188 C83.3073,4.98438 83.5313,5.0625 83.75,5.15625 M90.6094,7.375 L90.6094,11 L90.1094,11 L90.1094,7.40625 C90.1094,6.625 89.9792,6.07552 89.7188,5.75781 C89.4583,5.4401 89.0625,5.28125 88.5313,5.28125 C87.9167,5.28125 87.4323,5.45833 87.0781,5.8125 C86.724,6.16667 86.5469,6.76042 86.5469,7.59375 L86.5469,11 L86.0625,11 L86.0625,2.64063 L86.5469,2.64063 L86.5469,6.09375 C86.6615,5.79167 86.8698,5.52083 87.1719,5.28125 C87.5156,4.98958 88.0052,4.84375 88.6406,4.84375 C89.2448,4.84375 89.724,5.05729 90.0781,5.48438 C90.4323,5.91146 90.6094,6.54167 90.6094,7.375 M97.7188,7.75 L97.7188,8.0625 L93.1563,8.0625 C93.1563,9.02083 93.3438,9.69792 93.7188,10.0938 C94.1354,10.5208 94.75,10.7344 95.5625,10.7344 C95.7813,10.7344 96.0677,10.6875 96.4219,10.5938 C96.776,10.5 97.1302,10.3594 97.4844,10.1719 L97.4844,10.6875 C97.1302,10.8438 96.7682,10.9609 96.3984,11.0391 C96.0286,11.1172 95.7344,11.1563 95.5156,11.1563 C94.5885,11.1563 93.8906,10.9063 93.4219,10.4063 C92.9115,9.875 92.6563,9.09375 92.6563,8.0625 C92.6563,6.98958 92.8854,6.1875 93.3438,5.65625 C93.8229,5.11458 94.4896,4.84375 95.3438,4.84375 C96.125,4.84375 96.7188,5.10417 97.125,5.625 C97.5208,6.16667 97.7188,6.875 97.7188,7.75 M97.2188,7.64063 C97.2188,6.79688 97.026,6.18229 96.6406,5.79688 C96.3281,5.45313 95.8958,5.28125 95.3438,5.28125 C94.75,5.28125 94.25,5.45833 93.8438,5.8125 C93.4688,6.14583 93.2448,6.75521 93.1719,7.64063 L97.2188,7.64063 M103.063,5.40625 C102.979,5.36458 102.87,5.33333 102.734,5.3125 C102.609,5.29167 102.458,5.28125 102.281,5.28125 C101.667,5.28125 101.161,5.50521 100.766,5.95313 C100.443,6.31771 100.281,6.94271 100.281,7.82813 L100.281,11 L99.7969,11 L99.7969,4.98438 L100.281,4.98438 L100.281,6.10938 C100.448,5.78646 100.677,5.51563 100.969,5.29688 C101.365,4.99479 101.833,4.84375 102.375,4.84375 C102.521,4.84375 102.646,4.84896 102.75,4.85938 C102.854,4.85938 102.958,4.86979 103.063,4.89063 L103.063,5.40625"/>
</g>

<g fill="none" stroke="#000000" stroke-opacity="1" stroke-width="1" stroke-linecap="square" stroke-linejoin="bevel" transform="matrix(1.99946,0,0,1.99946,93.1914,21.994)"
font-family="sans" font-size="11" font-weight="100" font-style="normal" 
>
</g>

<g fill="none" stroke="#000000" stroke-opacity="1" stroke-width="1" stroke-linecap="square" stroke-linejoin="bevel" transform="matrix(1.99946,0,0,1.99946,93.1914,21.994)"
font-family="Ubuntu" font-size="11" font-weight="400" font-style="normal" 
>
</g>

<g fill="none" stroke="#000000" stroke-opacity="1" stroke-width="1" stroke-linecap="square" stroke-linejoin="bevel" transform="matrix(1.99946,0,0,1.99946,-0.00279924,71.9805)"
font-family="Ubuntu" font-size="11" font-weight="400" font-style="normal" 
>
</g>

<g fill="none" stroke="#000000" stroke-opacity="1" stroke-width="1" stroke-linecap="square" stroke-linejoin="bevel" transform="matrix(1.99946,0,0,1.99946,-0.00279924,71.9805)"
font-family="Ubuntu" font-size="11" font-weight="400" font-style="normal" 
>
</g>

<g fill="none" stroke="#000000" stroke-opacity="1" stroke-width="1" stroke-linecap="square" stroke-linejoin="bevel" transform="matrix(1.99946,0,0,1.99946,-0.00279924,71.9805)"
font-family="Ubuntu" font-size="11" font-weight="400" font-style="normal" 
>
</g>

<g fill="none" stroke="#000000" stroke-opacity="1" stroke-width="1" stroke-linecap="square" stroke-linejoin="round" transform="matrix(1.99946,0,0,1.99946,-0.00279924,71.9805)"
font-family="Ubuntu" font-size="11" font-weight="400" font-style="normal" 
>
<path vector-effect="none" fill-rule="evenodd" d="M287.35,-18 C288.45,-18 289.55,-18 290.68,-18 "/>
</g>

<g fill="none" stroke="#000000" stroke-opacity="1" stroke-width="1" stroke-linecap="square" stroke-linejoin="bevel" transform="matrix(1.99946,0,0,1.99946,-0.00279924,71.9805)"
font-family="Ubuntu" font-size="11" font-weight="400" font-style="normal" 
>
</g>

<g fill="none" stroke="#000000" stroke-opacity="1" stroke-width="1" stroke-linecap="square" stroke-linejoin="bevel" transform="matrix(1.99946,0,0,1.99946,-0.00279924,71.9805)"
font-family="Ubuntu" font-size="11" font-weight="400" font-style="normal" 
>
</g>

<g fill="#000000" fill-opacity="1" stroke="#000000" stroke-opacity="1" stroke-width="1" stroke-linecap="square" stroke-linejoin="round" transform="matrix(1.99946,0,0,1.99946,-0.00279924,71.9805)"
font-family="Ubuntu" font-size="11" font-weight="400" font-style="normal" 
>
<path vector-effect="none" fill-rule="evenodd" d="M290.68,-18 L290.68,-14.3705 L301.05,-18 L290.68,-21.6295 L290.68,-18"/>
</g>

<g fill="none" stroke="#000000" stroke-opacity="1" stroke-width="1" stroke-linecap="square" stroke-linejoin="bevel" transform="matrix(1.99946,0,0,1.99946,-0.00279924,71.9805)"
font-family="Ubuntu" font-size="11" font-weight="400" font-style="normal" 
>
</g>

<g fill="none" stroke="#000000" stroke-opacity="1" stroke-width="1" stroke-linecap="square" stroke-linejoin="bevel" transform="matrix(1.99946,0,0,1.99946,-0.00279924,71.9805)"
font-family="Ubuntu" font-size="11" font-weight="400" font-style="normal" 
>
</g>

<g fill="none" stroke="#000000" stroke-opacity="1" stroke-width="1" stroke-linecap="square" stroke-linejoin="bevel" transform="matrix(1.99946,0,0,1.99946,-0.00279924,71.9805)"
font-family="Ubuntu" font-size="11" font-weight="400" font-style="normal" 
>
</g>

<g fill="none" stroke="#000000" stroke-opacity="1" stroke-width="1" stroke-linecap="square" stroke-linejoin="bevel" transform="matrix(1.99946,0,0,1.99946,-0.00279924,71.9805)"
font-family="Ubuntu" font-size="11" font-weight="400" font-style="normal" 
>
</g>

<g fill="none" stroke="#000000" stroke-opacity="1" stroke-width="1" stroke-linecap="square" stroke-linejoin="round" transform="matrix(1.99946,0,0,1.99946,-0.00279924,71.9805)"
font-family="Ubuntu" font-size="11" font-weight="400" font-style="normal" 
>
<path vector-effect="none" fill-rule="evenodd" d="M480.73,-18 C481.89,-18 483.05,-18 484.2,-18 "/>
</g>

<g fill="none" stroke="#000000" stroke-opacity="1" stroke-width="1" stroke-linecap="square" stroke-linejoin="bevel" transform="matrix(1.99946,0,0,1.99946,-0.00279924,71.9805)"
font-family="Ubuntu" font-size="11" font-weight="400" font-style="normal" 
>
</g>

<g fill="none" stroke="#000000" stroke-opacity="1" stroke-width="1" stroke-linecap="square" stroke-linejoin="bevel" transform="matrix(1.99946,0,0,1.99946,-0.00279924,71.9805)"
font-family="Ubuntu" font-size="11" font-weight="400" font-style="normal" 
>
</g>

<g fill="#000000" fill-opacity="1" stroke="#000000" stroke-opacity="1" stroke-width="1" stroke-linecap="square" stroke-linejoin="round" transform="matrix(1.99946,0,0,1.99946,-0.00279924,71.9805)"
font-family="Ubuntu" font-size="11" font-weight="400" font-style="normal" 
>
<path vector-effect="none" fill-rule="evenodd" d="M484.2,-18 L484.2,-14.3985 L494.49,-18 L484.2,-21.6015 L484.2,-18"/>
</g>

<g fill="none" stroke="#000000" stroke-opacity="1" stroke-width="1" stroke-linecap="square" stroke-linejoin="bevel" transform="matrix(1.99946,0,0,1.99946,-0.00279924,71.9805)"
font-family="Ubuntu" font-size="11" font-weight="400" font-style="normal" 
>
</g>

<g fill="none" stroke="#000000" stroke-opacity="1" stroke-width="1" stroke-linecap="square" stroke-linejoin="bevel" transform="matrix(1.99946,0,0,1.99946,-0.00279924,71.9805)"
font-family="Ubuntu" font-size="11" font-weight="400" font-style="normal" 
>
</g>

<g fill="none" stroke="#000000" stroke-opacity="1" stroke-width="1" stroke-linecap="square" stroke-linejoin="bevel" transform="matrix(1.99946,0,0,1.99946,-0.00279924,71.9805)"
font-family="Ubuntu" font-size="11" font-weight="400" font-style="normal" 
>
</g>

<g fill="none" stroke="#000000" stroke-opacity="1" stroke-width="1" stroke-linecap="square" stroke-linejoin="bevel" transform="matrix(1.99946,0,0,1.99946,-0.00279924,71.9805)"
font-family="Ubuntu" font-size="11" font-weight="400" font-style="normal" 
>
</g>

<g fill="none" stroke="#000000" stroke-opacity="1" stroke-width="1" stroke-linecap="square" stroke-linejoin="round" transform="matrix(1.99946,0,0,1.99946,-0.00279924,71.9805)"
font-family="Ubuntu" font-size="11" font-weight="400" font-style="normal" 
>
<path vector-effect="none" fill-rule="evenodd" d="M196.63,-18 C197.81,-18 198.97,-18 200.13,-18 "/>
</g>

<g fill="none" stroke="#000000" stroke-opacity="1" stroke-width="1" stroke-linecap="square" stroke-linejoin="bevel" transform="matrix(1.99946,0,0,1.99946,-0.00279924,71.9805)"
font-family="Ubuntu" font-size="11" font-weight="400" font-style="normal" 
>
</g>

<g fill="none" stroke="#000000" stroke-opacity="1" stroke-width="1" stroke-linecap="square" stroke-linejoin="bevel" transform="matrix(1.99946,0,0,1.99946,-0.00279924,71.9805)"
font-family="Ubuntu" font-size="11" font-weight="400" font-style="normal" 
>
</g>

<g fill="#000000" fill-opacity="1" stroke="#000000" stroke-opacity="1" stroke-width="1" stroke-linecap="square" stroke-linejoin="round" transform="matrix(1.99946,0,0,1.99946,-0.00279924,71.9805)"
font-family="Ubuntu" font-size="11" font-weight="400" font-style="normal" 
>
<path vector-effect="none" fill-rule="evenodd" d="M200.13,-18 L200.13,-14.458 L210.25,-18 L200.13,-21.542 L200.13,-18"/>
</g>

<g fill="none" stroke="#000000" stroke-opacity="1" stroke-width="1" stroke-linecap="square" stroke-linejoin="bevel" transform="matrix(1.99946,0,0,1.99946,-0.00279924,71.9805)"
font-family="Ubuntu" font-size="11" font-weight="400" font-style="normal" 
>
</g>

<g fill="none" stroke="#000000" stroke-opacity="1" stroke-width="1" stroke-linecap="square" stroke-linejoin="bevel" transform="matrix(1,0,0,1,0,0)"
font-family="Ubuntu" font-size="11" font-weight="400" font-style="normal" 
>
</g>
</g>
</svg>
